# xmcd
#
# Track frame offsets:
#	150
#	11870
#	33861
#	48603
#	65303
#	84793
#	96488
#	108723
#	124382
#	142632
#	155407
#	171239
#	188385
#	205894
#
# Disc length: 2940 seconds
#
# Revision: 3
# Processed by: cddbd v1.5.1PL2 Copyright (c) Steve Scherf et al.
# Submitted via: EasyCDDAExtractor 9.0.0.1
#
DISCID=b70b7a0e
DTITLE=Dave ''Honeyboy'' Edwards - I've Been Around
DYEAR=2000
DGENRE=Blues
TTITLE0=Pony Blues
TTITLE1=Sad and Lonesome
TTITLE2=Hambone Blues
TTITLE3=Ride With Me Tonight
TTITLE4=I'm A Country Man
TTITLE5=Banty Rooster
TTITLE6=Take Me In Your Arms
TTITLE7=You're Gonna Miss Me
TTITLE8=I Feel So Good Today
TTITLE9=Things Have Changed
TTITLE10=Big Fat Mama
TTITLE11=Eyes Full Of Tears
TTITLE12=The Woman I'm Loving
TTITLE13=Big Road Blues
EXTD=Trix 3319\n\nProduced by Honeyboy Edwards and Pete Lowry\n\nDavid "Honeyb
EXTD=oy" Edwards:  vocals, guitar, and harmonica\nWalter Horton:  harmonica\nEdd
EXTD=ie El:  guitar
EXTT0=
EXTT1=
EXTT2=
EXTT3=
EXTT4=
EXTT5=
EXTT6=
EXTT7=
EXTT8=
EXTT9=
EXTT10=
EXTT11=
EXTT12=
EXTT13=
PLAYORDER=
